<svg xmlns="http://www.w3.org/2000/svg" version="1.1" xmlns:xlink="http://www.w3.org/1999/xlink" width="512px" height="512px"><svg version="1.1" xmlns="http://www.w3.org/2000/svg" xmlns:xlink="http://www.w3.org/1999/xlink" x="0px" y="0px" width="512px" height="512px" viewBox="0 0 512 512" enable-background="new 0 0 512 512" xml:space="preserve">
<g id="SvgjsG1217">
	<g id="SvgjsG1216">
	</g>
	<g id="SvgjsG1215">
	</g>
	<g id="SvgjsG1214">
	</g>
	<g id="SvgjsG1213">
	</g>
	<g id="SvgjsG1212">
	</g>
	<g id="SvgjsG1211">
	</g>
	<g id="SvgjsG1210">
	</g>
	<g id="SvgjsG1209">
	</g>
	<g id="SvgjsG1208">
	</g>
	<g id="SvgjsG1207">
	</g>
</g>
<g id="SvgjsG1206">
	<g id="SvgjsG1205">
	</g>
	<g id="SvgjsG1204">
	</g>
	<g id="SvgjsG1203">
	</g>
	<g id="SvgjsG1202">
	</g>
	<g id="SvgjsG1201">
	</g>
	<g id="SvgjsG1200">
	</g>
	<g id="SvgjsG1199">
	</g>
	<g id="SvgjsG1198">
	</g>
	<g id="SvgjsG1197">
	</g>
	<g id="SvgjsG1196">
	</g>
</g>
<g id="SvgjsG1195">
	<g id="SvgjsG1194">
	</g>
	<g id="SvgjsG1193">
	</g>
	<g id="SvgjsG1192">
	</g>
	<g id="SvgjsG1191">
	</g>
	<g id="SvgjsG1190">
	</g>
	<g id="SvgjsG1189">
	</g>
	<g id="SvgjsG1188">
	</g>
	<g id="SvgjsG1187">
	</g>
	<g id="SvgjsG1186">
	</g>
	<g id="SvgjsG1185">
	</g>
</g>
<g id="SvgjsG1184">
	<g id="SvgjsG1183">
	</g>
	<g id="SvgjsG1182">
	</g>
	<g id="SvgjsG1181">
	</g>
	<g id="SvgjsG1180">
	</g>
	<g id="SvgjsG1179">
	</g>
	<g id="SvgjsG1178">
	</g>
	<g id="SvgjsG1177">
	</g>
	<g id="SvgjsG1176">
	</g>
	<g id="SvgjsG1175">
	</g>
	<g id="SvgjsG1174">
	</g>
</g>
<g id="SvgjsG1173">
	<g id="SvgjsG1172">
	</g>
	<g id="SvgjsG1171">
	</g>
	<g id="SvgjsG1170">
	</g>
	<g id="SvgjsG1169">
	</g>
	<g id="SvgjsG1168">
	</g>
	<g id="SvgjsG1167">
	</g>
	<g id="SvgjsG1166">
	</g>
	<g id="SvgjsG1165">
	</g>
	<g id="SvgjsG1164">
	</g>
	<g id="SvgjsG1163">
	</g>
	<g id="SvgjsG1162">
	</g>
	<g id="SvgjsG1161">
	</g>
	<g id="SvgjsG1160">
	</g>
	<g id="SvgjsG1159">
	</g>
	<g id="SvgjsG1158">
	</g>
	<g id="SvgjsG1157">
	</g>
	<g id="SvgjsG1156">
	</g>
	<g id="SvgjsG1155">
	</g>
	<g id="SvgjsG1154">
	</g>
	<g id="SvgjsG1153">
	</g>
	<g id="SvgjsG1152">
	</g>
	<g id="SvgjsG1151">
	</g>
	<g id="SvgjsG1150">
	</g>
</g>
<g id="SvgjsG1149">
	<g id="SvgjsG1148">
	</g>
	<g id="SvgjsG1147">
	</g>
	<g id="SvgjsG1146">
	</g>
	<g id="SvgjsG1145">
	</g>
	<g id="SvgjsG1144">
	</g>
	<g id="SvgjsG1143">
	</g>
	<g id="SvgjsG1142">
	</g>
</g>
<g id="SvgjsG1141">
	<g id="SvgjsG1140">
	</g>
	<g id="SvgjsG1139">
	</g>
	<g id="SvgjsG1138">
	</g>
	<g id="SvgjsG1137">
		<path fill="#A6A6A6" d="M426.333,341.075c0,0,13.333-25.407-19.333-51.32c0,0,20.216,30.129,6.441,53.441L426.333,341.075z"></path>
		<circle fill="#73B4B2" cx="256" cy="256.491" r="157.441"></circle>
		<path fill="#E3E3E3" d="M290.315,332.534c0,0,79.352,57.271,136.019,8.54c0,0-81.786-3.9-99.056-51.32"></path>
		<g>
			<defs>
				<circle id="SvgjsCircle1136" cx="256" cy="256.491" r="157.441"></circle>
			</defs>
			<clipPath id="SvgjsClipPath1135">
				<use xlink:href="#SVGID_27_" overflow="visible"></use>
			</clipPath>
			<g clip-path="url(#SVGID_2_)">
				<polygon fill="#629997" points="272.559,81.3 272.559,121.3 209.124,137.55 194.091,165.094 162.559,173.55 189.591,207.824 
					217.559,175.3 256,175.3 294.559,197.277 294.559,240.3 321.619,241.906 329.118,272.002 308.119,289.05 282.621,324.796 
					276.621,352.677 265.982,368.231 245.559,369.927 245.559,324.796 228.483,290.55 207.624,277.752 176.126,226.859 
					134.128,197.448 123.593,202.8 111.559,155.55 111.559,111.397 255.524,40.901 				"></polygon>
				<polygon fill="#4FB463" points="387.615,142.55 374.116,197.448 387.615,229.734 413.441,256.491 440.113,241.906 				"></polygon>
				<polygon fill="#629997" points="225.842,438.547 231.733,419.61 243.677,413.931 255.805,390.978 275.559,374.469 
					275.559,386.3 275.559,396.66 291.62,406.508 347.117,396.66 354.617,432.381 348.617,447.38 				"></polygon>
			</g>
			<g clip-path="url(#SVGID_2_)">
				<g>
					<g>
						<polygon fill="#629997" points="377.615,155.55 364.116,210.448 377.615,242.734 403.441,269.491 430.113,254.906 						"></polygon>
					</g>
					<g>
						<polygon fill="#ADD660" points="263,84.3 263,124.3 199.345,140.55 184.201,168.094 152.614,176.55 179.619,210.9 
							207.559,178.452 246,178.452 285,200.277 285,243.3 311.839,244.906 319.229,275.002 298.175,292.05 272.648,327.796 
							266.635,355.677 256.209,371.231 236,372.927 236,327.796 218.704,293.55 197.735,280.752 166.181,229.859 124.156,200.448 
							113.828,205.8 102,158.55 102,114.397 245.965,43.901 						"></polygon>
					</g>
					<g>
						<polygon fill="#ADD660" points="377.615,145.55 364.116,200.448 377.615,232.734 403.441,259.491 430.113,244.906 						"></polygon>
					</g>
					<g>
						<polygon fill="#ADD660" points="215.842,441.547 221.733,422.61 233.677,416.931 246.026,393.978 266,377.469 266,389.3 
							266,399.66 281.841,409.508 337.228,399.66 344.672,435.381 338.645,450.38 						"></polygon>
					</g>
				</g>
			</g>
		</g>
		<g>
			<g>
				<path fill="#FFD161" d="M122.515,188.693c-1.757-1.757-4.607-1.757-6.364,0l-10.253,10.253c-1.757,1.757-1.757,4.607,0,6.364
					l0.707,0.707l16.617-16.617L122.515,188.693z"></path>
				<path fill="#CF5341" d="M106.605,206.017l22.874,22.874c1.757,1.757,4.607,1.757,6.364,0l10.253-10.253
					c1.757-1.757,1.757-4.607,0-6.364L123.222,189.4L106.605,206.017z"></path>
			</g>
			<g>
				<path fill="#FFD161" d="M97.06,235.362c-1.757-1.757-4.607-1.757-6.364,0l-10.253,10.253c-1.757,1.757-1.757,4.607,0,6.364
					l0.707,0.707l16.617-16.617L97.06,235.362z"></path>
				<path fill="#CF5341" d="M81.15,252.686l22.874,22.874c1.757,1.757,4.607,1.757,6.364,0l10.253-10.253
					c1.757-1.757,1.757-4.607,0-6.364l-22.874-22.874L81.15,252.686z"></path>
			</g>
			<polygon fill="#FF6650" points="139.095,154.715 83.659,330.149 94.585,341.075 180.852,195.411 			"></polygon>
			<polygon fill="#FFD161" points="141.57,157.126 138.715,155.917 83.659,330.149 94.585,341.075 98.267,334.857 89.635,326.225 
				151.328,166.637 			"></polygon>
			<g>
				<path fill="#FFD161" d="M190.044,121.164c-1.757-1.757-1.757-4.607,0-6.364l10.253-10.253c1.757-1.757,4.607-1.757,6.364,0
					l0.707,0.707l-16.617,16.617L190.044,121.164z"></path>
				<path fill="#CF5341" d="M207.368,105.254l22.874,22.874c1.757,1.757,1.757,4.607,0,6.364l-10.253,10.253
					c-1.757,1.757-4.607,1.757-6.364,0l-22.874-22.874L207.368,105.254z"></path>
			</g>
			<g>
				<path fill="#FFD161" d="M236.713,95.709c-1.757-1.757-1.757-4.607,0-6.364l10.253-10.253c1.757-1.757,4.607-1.757,6.364,0
					l0.707,0.707L237.42,96.416L236.713,95.709z"></path>
				<path fill="#CF5341" d="M254.037,79.799l22.874,22.874c1.757,1.757,1.757,4.607,0,6.364l-10.253,10.253
					c-1.757,1.757-4.607,1.757-6.364,0L237.42,96.416L254.037,79.799z"></path>
			</g>
			<polygon fill="#FF6650" points="156.066,137.744 331.5,82.308 342.426,93.234 196.762,179.501 			"></polygon>
			<polygon fill="#FFD161" points="158.477,140.219 157.268,137.364 331.5,82.308 342.426,93.234 336.208,96.916 327.576,88.284 
				167.988,149.977 			"></polygon>
			<path fill="#FF6650" d="M303.399,278.756L112.969,80.859c0,0-29.168-25.986-42.78-12.374s12.021,43.134,12.021,43.134
				l197.897,190.429l-2.736,35.845l9.546,9.546l16.617-28.638l14.142-2.121l0.354-0.354l2.121-14.142l28.638-16.617l-9.546-9.546
				L303.399,278.756z"></path>
			<path fill="#CF5341" d="M112.969,80.859c0,0-22.4-19.955-37.101-15.73c-2.074,0.596-3.996,1.672-5.679,3.355
				c-1.687,1.687-2.769,3.618-3.374,5.706C62.537,88.96,82.21,111.618,82.21,111.618l197.897,190.429l-0.014,0.18l9.098,1.805
				c0,0-165.498-153.129-196.065-192.749C79.623,93.78,75.435,81.523,74.965,73.291c8.232,0.471,20.489,4.658,37.993,18.163
				c39.619,30.567,192.749,196.065,192.749,196.065l-1.747-8.805l-0.56,0.043L112.969,80.859z"></path>
			<polygon fill="#FFD161" points="279.823,302.117 288.875,304.361 282.322,336.478 289.039,343.196 286.564,347.792 
				277.018,338.246 			"></polygon>
			<polygon fill="#FFD161" points="303.468,278.472 305.712,287.524 337.829,280.97 344.547,287.688 349.143,285.213 
				339.597,275.667 			"></polygon>
			
				<rect x="313.543" y="269.192" transform="matrix(0.7071 -0.7071 0.7071 0.7071 -130.2646 316.3973)" fill="#FFD161" width="6.5" height="92.5"></rect>
			<path fill="#6FEBE7" d="M87.514,86.516c-11.314,11.314,4.95,25.456,4.95,25.456c-5.362-15.615,4.891-25.868,20.506-20.506
				C112.969,91.466,98.827,75.202,87.514,86.516z"></path>
		</g>
	</g>
	<g id="SvgjsG1134">
	</g>
	<g id="SvgjsG1133">
	</g>
	<g id="SvgjsG1132">
	</g>
	<g id="SvgjsG1131">
	</g>
	<g id="SvgjsG1130">
	</g>
	<g id="SvgjsG1129">
	</g>
	<g id="SvgjsG1128">
	</g>
	<g id="SvgjsG1127">
	</g>
	<g id="SvgjsG1126">
	</g>
	<g id="SvgjsG1125">
	</g>
	<g id="SvgjsG1124">
	</g>
	<g id="SvgjsG1123">
	</g>
	<g id="SvgjsG1122">
	</g>
	<g id="SvgjsG1121">
	</g>
	<g id="SvgjsG1120">
	</g>
	<g id="SvgjsG1119">
	</g>
	<g id="SvgjsG1118">
	</g>
	<g id="SvgjsG1117">
	</g>
	<g id="SvgjsG1116">
	</g>
	<g id="SvgjsG1115">
	</g>
	<g id="SvgjsG1114">
	</g>
	<g id="SvgjsG1113">
	</g>
	<g id="SvgjsG1112">
	</g>
	<g id="SvgjsG1111">
	</g>
	<g id="SvgjsG1110">
	</g>
	<g id="SvgjsG1109">
	</g>
</g>
</svg><style>@media (prefers-color-scheme: light) { :root { filter: none; } }
@media (prefers-color-scheme: dark) { :root { filter: none; } }
</style></svg>